<svg width="100" height="100" viewBox="0 0 100 100" fill="none" xmlns="http://www.w3.org/2000/svg">
<g id="Logo-Icon" clip-path="url(#clip0_965_4918)">
<path id="Vector" d="M44.1704 0.321035C32.8048 1.81353 22.9218 6.53976 15.0154 14.2893C8.19228 20.9672 3.61186 29.0228 1.31215 38.3988C0.323844 42.4362 -0.0182608 45.536 0.000745118 50.0708C0.019751 58.2986 1.63525 65.0724 5.3414 72.5348C9.04754 79.959 14.9014 86.5986 22.0476 91.4206C31.5886 97.8498 43.6952 100.95 54.6236 99.7442C67.1676 98.3472 77.1836 93.621 85.6222 85.068C97.0258 73.4916 101.815 58.5284 99.3824 41.843C97.976 32.0462 92.3692 21.2542 85.09 14.2701C78.21 7.68784 69.9424 3.21036 60.8956 1.18209C55.707 0.0340171 49.036 -0.329539 44.1704 0.321035ZM56.1632 6.63544C69.8664 8.64456 81.973 17.5039 88.245 30.1136C90.1456 33.9404 91.514 38.2648 92.1982 42.5126C92.6734 45.4594 92.6734 53.362 92.1982 56.0982C90.9248 63.331 88.34 69.4542 84.0068 75.3284C83.2844 76.3234 81.403 78.4282 79.8444 79.9972L77.0126 82.8292L77.1266 84.3026L77.2406 85.7568L76.6894 83.652C76.0432 81.1454 75.473 79.7486 74.6368 78.6388C74.2948 78.1794 74.0096 77.7012 74.0096 77.5672C74.0286 77.4524 74.5038 76.9932 75.093 76.5722C76.1572 75.8068 77.6208 74.2568 78.419 73.0322C78.704 72.6304 79.1032 72.3052 79.5024 72.1904C80.4526 71.9224 81.536 70.7936 81.783 69.8176C82.0492 68.88 81.954 68.44 81.3078 67.4642L80.8328 66.7752L81.2508 64.881C81.669 63.0058 81.669 62.9676 81.3458 60.0208C81.1748 58.3944 81.0418 56.8254 81.0418 56.5574C81.0418 55.8878 79.5784 52.941 78.419 51.3146C76.4804 48.5592 75.7582 47.9086 72.9452 46.531C69.6762 44.9046 68.479 44.6366 65.1718 44.7706C62.283 44.8854 59.8502 45.4402 57.6266 46.5118C55.3838 47.5834 52.837 50.1282 50.3854 53.783C49.549 55.0076 49.492 55.1606 49.492 56.347C49.492 57.2654 49.302 58.1648 48.8078 59.7146C47.9716 62.336 48.0096 62.9484 49.207 64.9958C49.6822 65.7994 50.0622 66.5648 50.0622 66.6604C50.0622 66.7752 49.8152 67.1388 49.492 67.4832C48.4848 68.574 48.5038 70.2578 49.549 71.3868C50.1382 72.0182 51.5826 72.6114 51.9438 72.3626C52.0388 72.3052 51.9628 71.8268 51.7538 71.3102C51.1836 69.7986 51.3356 69.7412 52.0388 71.2146C53.4262 74.1612 55.3078 76.0556 58.3298 77.548C60.6104 78.6578 62.568 79.1554 65.362 79.2892C66.6164 79.3466 67.4716 79.4614 67.2626 79.538C66.1222 79.9398 60.8766 79.1936 58.4628 78.2752L57.2084 77.7968L56.8854 78.2368C56.1822 79.1554 54.7946 82.1978 54.4526 83.5562C54.2626 84.3408 53.9964 85.929 53.8634 87.077C53.4832 90.6552 53.3312 90.9804 52.9322 88.8756C52.267 85.3932 47.8006 68.8992 47.2494 67.9042C47.1734 67.7512 45.976 67.3494 44.5886 67.005C43.2012 66.6414 41.6806 66.2204 41.2054 66.029C40.7494 65.8568 40.3122 65.7612 40.2552 65.8186C40.1982 65.876 40.5212 66.4308 40.9774 67.0432C41.4336 67.6554 42.0798 68.593 42.4218 69.1098C43.3152 70.5448 45.3868 75.0222 45.995 76.8018C46.6602 78.6962 46.6032 78.83 44.6076 80.533C43.8474 81.1836 43.2202 81.8534 43.2202 82.0256C43.2202 82.1786 44.0944 83.1354 45.1588 84.1304C47.0022 85.8716 47.0784 85.9864 46.9262 86.5222L46.7552 87.0962L46.6792 86.503C46.6412 86.0438 46.185 85.5272 44.6456 84.0538C43.5432 83.0396 42.65 82.083 42.65 81.9298C42.65 81.796 43.3342 81.088 44.1514 80.3608C46.242 78.5622 46.261 78.4474 45.4058 76.2468C43.9614 72.554 40.8634 66.8518 39.723 65.7802C39.362 65.4358 39.2288 65.1106 39.2288 64.594C39.2288 63.8094 39.4 63.618 40.3692 63.2928C41.3576 62.9676 42.3268 62.2212 42.992 61.2836C43.5242 60.5374 43.7522 60.4034 45.2158 59.9442C46.109 59.6572 46.8312 59.351 46.8312 59.2746C46.8312 59.1788 46.4892 58.6814 46.071 58.1838C45.2538 57.1888 45.1016 56.481 45.6528 56.3088C45.824 56.2514 46.4892 56.1556 47.1164 56.079C47.7436 56.0216 48.3136 55.926 48.3898 55.8686C48.4658 55.8304 48.2756 55.1032 47.9716 54.2614C47.6484 53.4194 47.4014 52.6158 47.4014 52.501C47.4014 52.367 47.8956 52.1182 48.5038 51.9078C49.8532 51.4676 52.1528 50.3196 52.1528 50.09C52.1528 49.9944 51.4496 49.535 50.6134 49.0758C48.9598 48.1956 47.2874 46.8562 47.5344 46.6266C47.6104 46.55 48.2946 46.2822 49.0168 46.0526C50.8414 45.4402 52.78 44.541 54.3006 43.565C55.0038 43.125 55.574 42.7232 55.536 42.704C55.4598 42.6466 50.3094 40.427 49.8152 40.2548C49.587 40.1592 49.53 40.0444 49.625 39.8722C49.7012 39.719 50.9556 38.4944 52.4 37.155C53.8254 35.7964 55.0038 34.6292 55.0038 34.5528C55.0038 34.3996 53.8254 34.1892 50.3474 33.6916C49.093 33.5004 47.9906 33.309 47.9146 33.2324C47.8196 33.156 48.6938 31.472 49.8532 29.5012C51.7348 26.2674 52.0958 25.5786 51.9058 25.5786C51.8678 25.5786 50.3092 26.1336 48.4468 26.8224C45.7288 27.8174 44.9876 28.0088 44.7976 27.8174C44.3794 27.3964 43.9804 24.2392 43.9804 21.4072V18.6711L42.4408 19.4938C40.6354 20.4698 38.2216 22.364 37.1002 23.6844C36.682 24.201 36.245 24.622 36.169 24.622C36.0738 24.622 35.3516 23.7418 34.5344 22.651C33.128 20.7758 30.7522 18.1162 30.4862 18.1162C30.4102 18.1162 30.258 18.9581 30.144 19.9722C29.802 22.8424 28.7946 26.344 28.3004 26.344C28.1674 26.344 27.2552 25.9614 26.2858 25.502C24.7274 24.775 22.3516 24.0478 21.4774 24.0478C21.2494 24.0478 21.3634 24.3922 21.9146 25.5212C22.7508 27.2242 23.511 29.884 23.416 30.8024L23.359 31.4146L21.6484 31.5486C16.6689 31.9314 14.3312 32.161 14.3312 32.2566C14.3312 32.3332 15.1674 33.2324 16.1938 34.2848C18.1133 36.2366 19.5198 38.3222 19.4247 39.0494C19.3867 39.3172 18.4174 40.1208 16.4218 41.5178C14.8063 42.6466 13.4569 43.6608 13.4189 43.7564C13.3809 43.8522 13.5899 43.986 13.894 44.0626C15.9277 44.5026 16.8019 44.7898 17.5242 45.2106C18.5125 45.8038 19.5388 46.684 20.052 47.4112L20.432 47.947L18.3034 50.0708C16.5168 51.8694 16.2128 52.233 16.4408 52.4436C16.5929 52.5774 17.7332 53.0176 18.9876 53.4002C20.242 53.783 21.3444 54.1848 21.4394 54.2804C21.5344 54.3762 21.3824 55.352 21.0212 56.6914C20.6982 57.9352 20.489 59.0258 20.546 59.1214C20.6412 59.2936 23.777 59.1406 24.2902 58.9492C24.7654 58.777 24.9554 59.2362 25.0886 60.748C25.1646 61.6282 25.2786 62.3744 25.3546 62.4126C25.5066 62.5082 27.6352 61.5898 27.6352 61.4368C27.6352 61.3794 27.3882 60.9776 27.0842 60.5374C25.8108 58.6622 24.9364 56.3088 24.2522 52.8454C23.7962 50.6448 23.587 48.54 23.8152 48.54C23.8912 48.54 24.0242 49.1524 24.1002 49.8986C24.4804 54.1656 26.438 59.5808 28.2244 61.3794C28.6806 61.8386 29.669 62.4892 30.6192 62.9292L32.2158 63.6754L32.1586 64.3834L32.1016 65.0914L27.8824 66.5074L23.663 67.9234L23.283 69.0906C23.0738 69.7412 22.1996 72.707 21.3634 75.7112C19.8049 81.1644 19.3297 82.5422 19.5578 80.9158C19.6528 80.112 19.6148 80.0356 18.6455 78.964C12.5826 72.3818 8.83848 64.6704 7.37502 55.7156C6.82386 52.4436 6.88088 45.4402 7.47006 42.2256C9.12356 33.1942 12.7727 25.8274 18.7405 19.5321C28.4716 9.29514 42.0988 4.58804 56.1632 6.63544ZM30.4482 68.4782C29.0798 71.3294 26.647 78.1604 26.856 78.524C26.951 78.6962 27.7684 79.4806 28.6806 80.2842C29.6118 81.088 30.3912 81.8342 30.4292 81.9682C30.4862 82.102 30.201 82.523 29.802 82.9248C29.3838 83.365 29.2318 83.4606 29.4218 83.1736C30.163 82.0064 30.22 82.1594 28.3004 80.38C27.008 79.1744 26.495 78.5814 26.495 78.256C26.495 77.261 30.258 67.6746 30.6572 67.6746C30.7522 67.6746 30.6572 68.0382 30.4482 68.4782Z" fill="black"/>
</g>
<defs>
<clipPath id="clip0_965_4918">
<rect width="100" height="100" fill="white"/>
</clipPath>
</defs>
</svg>
