<svg width="100" height="100" viewBox="0 0 100 100" fill="none" xmlns="http://www.w3.org/2000/svg">
<g id="favicon withe" clip-path="url(#clip0_38_5)">
<g id="Logo-Icon">
<path id="Vector" d="M44.1705 0.321034C32.8048 1.81353 22.9218 6.53975 15.0154 14.2893C8.19229 20.9672 3.61186 29.0227 1.31215 38.3987C0.323844 42.4361 -0.0182608 45.5359 0.000745122 50.0707C0.019751 58.2985 1.63525 65.0723 5.34141 72.5347C9.04755 79.9588 14.9014 86.5984 22.0476 91.4204C31.5886 97.8496 43.6953 100.95 54.6237 99.744C67.1677 98.347 77.1837 93.6208 85.6223 85.0678C97.0259 73.4915 101.815 58.5283 99.3825 41.8429C97.9761 32.0461 92.3693 21.2542 85.0901 14.2701C78.2101 7.68782 69.9425 3.21035 60.8957 1.18209C55.7071 0.0340169 49.0361 -0.329539 44.1705 0.321034ZM56.1633 6.63543C69.8665 8.64454 81.9731 17.5039 88.2451 30.1135C90.1457 33.9403 91.5141 38.2647 92.1983 42.5125C92.6735 45.4593 92.6735 53.3619 92.1983 56.0981C90.9249 63.3309 88.3401 69.4541 84.0069 75.3283C83.2845 76.3233 81.4031 78.4281 79.8445 79.997L77.0127 82.829L77.1267 84.3024L77.2407 85.7566L76.6895 83.6518C76.0433 81.1452 75.4731 79.7484 74.6369 78.6387C74.2949 78.1793 74.0097 77.7011 74.0097 77.5671C74.0287 77.4523 74.5039 76.9931 75.0931 76.5721C76.1573 75.8067 77.6209 74.2567 78.4191 73.0321C78.7041 72.6303 79.1033 72.3051 79.5025 72.1903C80.4527 71.9223 81.5361 70.7935 81.7831 69.8175C82.0493 68.8799 81.9541 68.4399 81.3079 67.4641L80.8329 66.7751L81.2509 64.8809C81.6691 63.0057 81.6691 62.9675 81.3459 60.0207C81.1749 58.3943 81.0419 56.8253 81.0419 56.5573C81.0419 55.8877 79.5785 52.9409 78.4191 51.3145C76.4805 48.5591 75.7583 47.9085 72.9453 46.5309C69.6763 44.9045 68.4791 44.6365 65.1719 44.7705C62.2831 44.8853 59.8503 45.4401 57.6267 46.5117C55.3839 47.5833 52.8371 50.1281 50.3855 53.7829C49.5491 55.0075 49.4921 55.1605 49.4921 56.3469C49.4921 57.2653 49.3021 58.1647 48.8079 59.7145C47.9717 62.3359 48.0097 62.9483 49.2071 64.9957C49.6823 65.7993 50.0623 66.5647 50.0623 66.6603C50.0623 66.7751 49.8153 67.1387 49.4921 67.4831C48.4849 68.5739 48.5039 70.2577 49.5491 71.3867C50.1383 72.0181 51.5827 72.6113 51.9439 72.3625C52.0389 72.3051 51.9629 71.8267 51.7539 71.3101C51.1837 69.7985 51.3357 69.7411 52.0389 71.2145C53.4263 74.1611 55.3079 76.0555 58.3299 77.5478C60.6105 78.6576 62.5681 79.1552 65.3621 79.289C66.6165 79.3464 67.4717 79.4613 67.2627 79.5379C66.1223 79.9396 60.8767 79.1934 58.4629 78.2751L57.2085 77.7967L56.8855 78.2367C56.1823 79.1553 54.7947 82.1976 54.4527 83.556C54.2627 84.3406 53.9965 85.9288 53.8635 87.0768C53.4833 90.655 53.3313 90.9802 52.9323 88.8754C52.2671 85.393 47.8007 68.8991 47.2495 67.9041C47.1735 67.7511 45.9761 67.3493 44.5887 67.0049C43.2013 66.6413 41.6806 66.2203 41.2054 66.0289C40.7494 65.8567 40.3122 65.7611 40.2552 65.8185C40.1982 65.8759 40.5213 66.4307 40.9775 67.0431C41.4337 67.6553 42.0798 68.5929 42.4218 69.1097C43.3153 70.5447 45.3869 75.0221 45.9951 76.8017C46.6603 78.6961 46.6033 78.8298 44.6077 80.5328C43.8475 81.1834 43.2203 81.8532 43.2203 82.0254C43.2203 82.1784 44.0945 83.1352 45.1589 84.1302C47.0023 85.8714 47.0785 85.9862 46.9263 86.522L46.7553 87.096L46.6793 86.5028C46.6413 86.0436 46.1851 85.527 44.6457 84.0536C43.5433 83.0394 42.6501 82.0828 42.6501 81.9296C42.6501 81.7958 43.3343 81.0878 44.1515 80.3606C46.2421 78.5621 46.2611 78.4473 45.4059 76.2467C43.9615 72.5539 40.8634 66.8517 39.723 65.7801C39.362 65.4357 39.2288 65.1105 39.2288 64.5939C39.2288 63.8093 39.4 63.6179 40.3692 63.2927C41.3577 62.9675 42.3269 62.2211 42.9921 61.2835C43.5243 60.5373 43.7523 60.4033 45.2159 59.9441C46.1091 59.6571 46.8313 59.3509 46.8313 59.2745C46.8313 59.1787 46.4893 58.6813 46.0711 58.1837C45.2539 57.1887 45.1017 56.4809 45.6529 56.3087C45.8241 56.2513 46.4893 56.1555 47.1165 56.0789C47.7437 56.0215 48.3137 55.9259 48.3899 55.8685C48.4659 55.8303 48.2757 55.1031 47.9717 54.2613C47.6485 53.4193 47.4015 52.6157 47.4015 52.5009C47.4015 52.3669 47.8957 52.1181 48.5039 51.9077C49.8533 51.4675 52.1529 50.3195 52.1529 50.0899C52.1529 49.9943 51.4497 49.5349 50.6135 49.0757C48.9599 48.1955 47.2875 46.8561 47.5345 46.6265C47.6105 46.5499 48.2947 46.2821 49.0169 46.0525C50.8415 45.4401 52.7801 44.5409 54.3007 43.5649C55.0039 43.1249 55.5741 42.7231 55.5361 42.7039C55.4599 42.6465 50.3095 40.4269 49.8153 40.2547C49.5871 40.1591 49.5301 40.0443 49.6251 39.8721C49.7013 39.7189 50.9557 38.4943 52.4001 37.1549C53.8255 35.7963 55.0039 34.6291 55.0039 34.5527C55.0039 34.3995 53.8255 34.1891 50.3475 33.6915C49.0931 33.5003 47.9907 33.3089 47.9147 33.2323C47.8197 33.1559 48.6939 31.4719 49.8533 29.5011C51.7349 26.2673 52.0959 25.5786 51.9059 25.5786C51.8679 25.5786 50.3093 26.1335 48.4469 26.8223C45.7289 27.8173 44.9877 28.0087 44.7977 27.8173C44.3795 27.3963 43.9805 24.2392 43.9805 21.4072V18.6711L42.4409 19.4938C40.6354 20.4698 38.2216 22.364 37.1002 23.6844C36.682 24.201 36.245 24.622 36.169 24.622C36.0738 24.622 35.3516 23.7418 34.5344 22.651C33.128 20.7758 30.7522 18.1162 30.4862 18.1162C30.4102 18.1162 30.258 18.9581 30.144 19.9722C29.802 22.8424 28.7946 26.3439 28.3004 26.3439C28.1674 26.3439 27.2552 25.9614 26.2858 25.502C24.7274 24.775 22.3516 24.0478 21.4774 24.0478C21.2494 24.0478 21.3634 24.3922 21.9146 25.5212C22.7508 27.2241 23.511 29.8839 23.416 30.8023L23.359 31.4145L21.6484 31.5485C16.6689 31.9313 14.3312 32.1609 14.3312 32.2565C14.3312 32.3331 15.1674 33.2323 16.1938 34.2847C18.1133 36.2365 19.5198 38.3221 19.4247 39.0493C19.3867 39.3171 18.4174 40.1207 16.4218 41.5177C14.8063 42.6465 13.4569 43.6607 13.4189 43.7563C13.3809 43.8521 13.5899 43.9859 13.894 44.0625C15.9277 44.5025 16.8019 44.7897 17.5242 45.2105C18.5125 45.8037 19.5388 46.6839 20.052 47.4111L20.432 47.9469L18.3034 50.0707C16.5168 51.8693 16.2128 52.2329 16.4408 52.4435C16.5929 52.5773 17.7332 53.0175 18.9876 53.4001C20.242 53.7829 21.3444 54.1847 21.4394 54.2803C21.5344 54.3761 21.3824 55.3519 21.0212 56.6913C20.6982 57.9351 20.489 59.0257 20.546 59.1213C20.6412 59.2935 23.777 59.1405 24.2902 58.9491C24.7654 58.7769 24.9554 59.2361 25.0886 60.7479C25.1646 61.6281 25.2786 62.3743 25.3546 62.4125C25.5066 62.5081 27.6352 61.5897 27.6352 61.4367C27.6352 61.3793 27.3882 60.9775 27.0842 60.5373C25.8108 58.6621 24.9364 56.3087 24.2522 52.8453C23.7962 50.6447 23.587 48.5399 23.8152 48.5399C23.8912 48.5399 24.0242 49.1523 24.1002 49.8985C24.4804 54.1655 26.438 59.5807 28.2244 61.3793C28.6806 61.8385 29.669 62.4891 30.6192 62.9291L32.2158 63.6753L32.1586 64.3833L32.1016 65.0913L27.8824 66.5073L23.663 67.9233L23.283 69.0905C23.0738 69.7411 22.1996 72.7069 21.3634 75.7111C19.8049 81.1642 19.3297 82.542 19.5578 80.9156C19.6528 80.1118 19.6148 80.0354 18.6455 78.9638C12.5826 72.3817 8.83849 64.6703 7.37503 55.7155C6.82387 52.4435 6.88089 45.4401 7.47007 42.2255C9.12357 33.1941 12.7727 25.8274 18.7405 19.5321C28.4716 9.29512 42.0989 4.58803 56.1633 6.63543ZM30.4482 68.4781C29.0798 71.3293 26.647 78.1603 26.856 78.5239C26.951 78.6961 27.7684 79.4805 28.6806 80.284C29.6118 81.0878 30.3912 81.834 30.4292 81.968C30.4862 82.1018 30.201 82.5228 29.802 82.9246C29.3838 83.3648 29.2318 83.4604 29.4218 83.1734C30.163 82.0062 30.22 82.1592 28.3004 80.3798C27.008 79.1742 26.495 78.5812 26.495 78.2558C26.495 77.2608 30.258 67.6745 30.6572 67.6745C30.7522 67.6745 30.6572 68.0381 30.4482 68.4781Z" fill="#F5F5F5"/>
</g>
</g>
<defs>
<clipPath id="clip0_38_5">
<rect width="100" height="100" fill="white"/>
</clipPath>
</defs>
</svg>
